<svg width="22" height="17" viewBox="0 0 22 17" fill="none" xmlns="http://www.w3.org/2000/svg">
<path d="M0.369141 10.62C0.369141 10.38 0.449141 10.18 0.619141 10.01C0.799141 9.84 0.999141 9.76 1.21914 9.76H3.25914C3.48914 9.76 3.67914 9.84 3.83914 10.01C3.98914 10.18 4.06914 10.38 4.06914 10.62C4.06914 10.86 3.98914 11.06 3.83914 11.22C3.68914 11.39 3.48914 11.47 3.25914 11.47H1.22914C0.999141 11.47 0.799141 11.39 0.629141 11.22C0.547247 11.143 0.481946 11.05 0.437238 10.9468C0.392531 10.8437 0.369358 10.7324 0.369141 10.62ZM3.22914 3.71C3.22914 3.48 3.30914 3.28 3.45914 3.1C3.65914 2.93 3.86914 2.85 4.09914 2.85C4.30914 2.85 4.50914 2.93 4.68914 3.1L6.11914 4.56C6.27914 4.71 6.35914 4.91 6.35914 5.15C6.35914 5.39 6.27914 5.59 6.11914 5.75C5.95914 5.91 5.75914 5.99 5.51914 5.99C5.27914 5.99 5.07914 5.91 4.92914 5.75L3.46914 4.32C3.39089 4.23917 3.32939 4.14366 3.28821 4.03897C3.24702 3.93428 3.22694 3.82248 3.22914 3.71ZM3.38914 13.02C3.38914 12.8 3.46914 12.61 3.61914 12.47C3.77914 12.33 3.98914 12.25 4.25914 12.25H9.96914C10.2391 12.25 10.4491 12.32 10.6091 12.47C10.7691 12.61 10.8491 12.8 10.8491 13.02C10.8491 13.29 10.7691 13.5 10.6191 13.66C10.4591 13.82 10.2491 13.9 9.96914 13.9H4.25914C3.98914 13.9 3.77914 13.82 3.61914 13.67C3.45914 13.52 3.38914 13.29 3.38914 13.02ZM4.37914 15.97C4.37914 15.75 4.46914 15.55 4.65914 15.37C4.73776 15.286 4.83263 15.2189 4.93798 15.1727C5.04333 15.1265 5.15697 15.1022 5.272 15.1013C5.38703 15.1004 5.50104 15.1228 5.60713 15.1673C5.71322 15.2117 5.80917 15.2773 5.88914 15.36C6.04914 15.54 6.12914 15.74 6.12914 15.97C6.12914 16.25 6.04914 16.46 5.89914 16.62C5.74914 16.78 5.52914 16.85 5.25914 16.85C5.03229 16.8526 4.81341 16.7665 4.64914 16.61C4.56026 16.5294 4.49004 16.4304 4.44341 16.3198C4.39677 16.2093 4.37484 16.0899 4.37914 15.97ZM5.78914 10.91V10.84C5.81914 9.58 6.25914 8.49 7.09914 7.56C7.93914 6.63 8.96914 6.07 10.1991 5.87H10.2491C10.4391 5.83 10.6991 5.81 11.0091 5.81C11.3191 5.81 11.5791 5.83 11.7691 5.87H11.8091C13.0291 6.06 14.0691 6.63 14.9091 7.56C15.7491 8.49 16.1891 9.58 16.2191 10.84V10.91C16.2191 11.07 16.1391 11.15 15.9891 11.15H14.8591C14.7391 11.15 14.6591 11.12 14.6091 11.06C14.5647 11.0105 14.5399 10.9465 14.5391 10.88C14.4991 9.95 14.1391 9.16 13.4591 8.51C12.7791 7.86 11.9691 7.54 11.0191 7.54C10.0691 7.54 9.25914 7.86 8.57914 8.51C7.89914 9.16 7.53914 9.95 7.49914 10.88C7.49914 10.94 7.46914 11 7.41914 11.06C7.36914 11.12 7.27914 11.15 7.15914 11.15H6.02914C5.86914 11.15 5.78914 11.07 5.78914 10.91ZM6.79914 15.97C6.79914 15.74 6.87914 15.54 7.03914 15.36C7.19914 15.19 7.40914 15.1 7.66914 15.1H11.4991C11.7191 15.1 11.9191 15.19 12.0991 15.37C12.2791 15.55 12.3791 15.75 12.3791 15.97C12.3791 16.23 12.2891 16.45 12.1091 16.61C11.9291 16.77 11.7291 16.85 11.4991 16.85H7.66914C7.39914 16.85 7.18914 16.77 7.02914 16.62C6.86914 16.46 6.79914 16.25 6.79914 15.97ZM10.1391 2.89V0.86C10.1391 0.62 10.2191 0.42 10.3891 0.25C10.5591 0.08 10.7591 0 10.9991 0C11.2391 0 11.4291 0.08 11.5991 0.25C11.7691 0.42 11.8491 0.62 11.8491 0.86V2.89C11.8491 3.12 11.7691 3.32 11.5991 3.47C11.4291 3.62 11.2291 3.71 10.9991 3.71C10.7691 3.71 10.5591 3.63 10.3991 3.48C10.2391 3.33 10.1391 3.12 10.1391 2.89ZM11.4991 13.02C11.4991 12.81 11.5891 12.63 11.7691 12.48C11.9491 12.33 12.1491 12.25 12.3791 12.25C12.6091 12.25 12.8091 12.33 12.9891 12.48C13.1691 12.63 13.2591 12.81 13.2591 13.02C13.2591 13.28 13.1691 13.5 12.9891 13.66C12.8091 13.82 12.6091 13.9 12.3791 13.9C12.1491 13.9 11.9391 13.82 11.7691 13.66C11.681 13.5788 11.6113 13.4797 11.5647 13.3693C11.5181 13.2589 11.4958 13.1398 11.4991 13.02ZM13.0391 15.97C13.0391 15.74 13.1191 15.54 13.2791 15.36C13.4391 15.19 13.6591 15.1 13.9191 15.1H15.7791C16.0391 15.1 16.2491 15.19 16.4091 15.36C16.5691 15.54 16.6491 15.74 16.6491 15.97C16.6491 16.25 16.5691 16.46 16.4191 16.62C16.2691 16.78 16.0491 16.85 15.7791 16.85H13.9191C13.6491 16.85 13.4391 16.77 13.2791 16.62C13.1191 16.46 13.0391 16.25 13.0391 15.97ZM13.9191 13.02C13.9191 12.81 14.0091 12.63 14.1891 12.48C14.3691 12.33 14.5691 12.25 14.7891 12.25H17.8591C18.0791 12.25 18.2591 12.32 18.3991 12.47C18.5391 12.62 18.6191 12.8 18.6191 13.02C18.6191 13.29 18.5491 13.5 18.4091 13.66C18.2691 13.82 18.0891 13.9 17.8591 13.9H14.7891C14.5591 13.9 14.3591 13.82 14.1791 13.66C14.0943 13.5768 14.0274 13.4771 13.9826 13.367C13.9379 13.2569 13.9163 13.1388 13.9191 13.02ZM15.6591 5.15C15.6591 4.9 15.7391 4.7 15.8891 4.56L17.3091 3.1C17.4891 2.93 17.6891 2.85 17.8991 2.85C18.1291 2.85 18.3291 2.93 18.4991 3.1C18.6691 3.27 18.7491 3.47 18.7491 3.71C18.7491 3.95 18.6691 4.16 18.5091 4.32L17.0491 5.74C16.8691 5.9 16.6691 5.98 16.4491 5.98C16.2191 5.98 16.0391 5.9 15.8891 5.74C15.813 5.66224 15.7534 5.56989 15.7139 5.4685C15.6743 5.36711 15.6557 5.25877 15.6591 5.15ZM17.9191 10.62C17.9191 10.39 17.9991 10.19 18.1591 10.01C18.3291 9.84 18.5191 9.76 18.7291 9.76H20.7491C20.9791 9.76 21.1791 9.85 21.3491 10.02C21.5191 10.19 21.6091 10.39 21.6091 10.62C21.6091 10.85 21.5191 11.05 21.3491 11.22C21.1791 11.39 20.9791 11.47 20.7491 11.47H18.7291C18.4991 11.47 18.2991 11.39 18.1491 11.22C17.9991 11.05 17.9191 10.86 17.9191 10.62Z" fill="#292D32"/>
</svg>
